HIERARCHY
ROOT Hips
{
	OFFSET -3.958830 18.904000 13.208200
	CHANNELS 6 Xposition Yposition Zposition Zrotation Yrotation Xrotation 
	JOINT LHipJoint
	{
		OFFSET 0.000000 0.000000 0.000000
		CHANNELS 3 Zrotation Yrotation Xrotation
		JOINT LeftUpLeg
		{
			OFFSET 1.800000 -1.400000 0.085000
			CHANNELS 3 Zrotation Yrotation Xrotation
			JOINT LeftLeg
			{
				OFFSET 2.215000 -6.000000 0.000000
				CHANNELS 3 Zrotation Yrotation Xrotation
				JOINT LeftFoot
				{
					OFFSET 2.500000 -6.900000 0.000000
					CHANNELS 3 Zrotation Yrotation Xrotation
					JOINT LeftToeBase
					{
						OFFSET 0.200000 -0.500000 1.950000
						CHANNELS 3 Zrotation Yrotation Xrotation
						End Site
						{
							OFFSET 0.000000 0.000000 0.000000
						}
					}
				}
			}
		}
	}
	JOINT RHipJoint
	{
		OFFSET 0.000000 0.000000 0.000000
		CHANNELS 3 Zrotation Yrotation Xrotation
		JOINT RightUpLeg
		{
			OFFSET -1.800000 -1.400000 0.085000
			CHANNELS 3 Zrotation Yrotation Xrotation
			JOINT RightLeg
			{
				OFFSET -2.215000 -6.000000 0.000000
				CHANNELS 3 Zrotation Yrotation Xrotation
				JOINT RightFoot
				{
					OFFSET -2.500000 -6.900000 0.000000
					CHANNELS 3 Zrotation Yrotation Xrotation
					JOINT RightToeBase
					{
						OFFSET -0.200000 -0.500000 1.950000
						CHANNELS 3 Zrotation Yrotation Xrotation
						End Site
						{
							OFFSET 0.000000 0.000000 0.000000
						}
					}
				}
			}
		}
	}
	JOINT LowerBack
	{
		OFFSET 0.000000 0.000000 0.000000
		CHANNELS 3 Zrotation Yrotation Xrotation
		JOINT Spine
		{
			OFFSET -0.087000 1.940000 -0.288900
			CHANNELS 3 Zrotation Yrotation Xrotation
			JOINT Spine1
			{
				OFFSET 0.000000 1.950000 0.060000
				CHANNELS 3 Zrotation Yrotation Xrotation
				JOINT Neck
				{
					OFFSET 0.000000 0.000000 0.000000
					CHANNELS 3 Zrotation Yrotation Xrotation
					JOINT Neck1
					{
						OFFSET 0.000000 1.600000 0.340000
						CHANNELS 3 Zrotation Yrotation Xrotation
						JOINT Head
						{
							OFFSET 0.000000 1.667000 -0.240000
							CHANNELS 3 Zrotation Yrotation Xrotation
							End Site
							{
								OFFSET 0.000000 0.000000 0.000000
							}
						}
					}
				}
				JOINT LeftShoulder
				{
					OFFSET 0.000000 0.000000 0.000000
					CHANNELS 3 Zrotation Yrotation Xrotation
					JOINT LeftArm
					{
						OFFSET 2.700000 1.550000 -0.730000
						CHANNELS 3 Zrotation Yrotation Xrotation
						JOINT LeftForeArm
						{
							OFFSET 5.450000 0.000000 0.000000
							CHANNELS 3 Zrotation Yrotation Xrotation
							JOINT LeftHand
							{
								OFFSET 3.450000 0.000000 0.000000
								CHANNELS 3 Zrotation Yrotation Xrotation
								JOINT LeftHandIndex1
								{
									OFFSET 0.750000 0.000000 0.000000
									CHANNELS 3 Zrotation Yrotation Xrotation
									End Site
									{
										OFFSET 0.000000 0.000000 0.000000
									}
								}
							}
						}
					}
				}
				JOINT RightShoulder
				{
					OFFSET 0.000000 0.000000 0.000000
					CHANNELS 3 Zrotation Yrotation Xrotation
					JOINT RightArm
					{
						OFFSET -2.700000 1.550000 -0.730000
						CHANNELS 3 Zrotation Yrotation Xrotation
						JOINT RightForeArm
						{
							OFFSET -5.450000 0.000000 0.000000
							CHANNELS 3 Zrotation Yrotation Xrotation
							JOINT RightHand
							{
								OFFSET -3.450000 0.000000 0.000000
								CHANNELS 3 Zrotation Yrotation Xrotation
								JOINT RightHandIndex1
								{
									OFFSET -0.750000 0.000000 0.000000
									CHANNELS 3 Zrotation Yrotation Xrotation
									End Site
									{
										OFFSET 0.000000 0.000000 0.000000
									}
								}
							}
						}
					}
				}
			}
		}
	}
}
MOTION
Frames: 10
Frame Time: 0.016667
0.211810 17.056990 -2.410890 19.398010 -27.118454 -33.629415 -16.072832 13.213028 5.746099 9.760030 5.232482 -64.174137 3.891088 8.402626 27.053934 0.532545 5.450463 2.367682 1.047080 0.842200 0.985700 17.725657 -9.363452 0.587869 -20.126237 5.077457 5.903246 -0.368628 -5.192551 31.263873 -1.036495 -5.376610 2.369205 0.051750 -0.664070 0.434180 -1.028822 -6.769715 -8.734093 -20.445700 22.519346 64.938880 12.372490 13.832653 11.540887 3.322800 -12.811287 -17.256111 -25.175199 8.519877 35.246811 -5.550910 0.406890 -33.109000 -17.782069 -20.718523 13.230762 -37.814904 21.726273 -22.191150 -91.761936 -20.791487 0.527149 -2.652831 3.764100 0.528470 -0.600070 0.773810 0.266550 13.158397 46.172126 8.273538 10.970780 25.869316 -19.964034 -128.350755 39.210455 -98.710944 2.701099 -1.671611 0.593870 -0.313310 -0.771670 0.050540 
0.234200 17.062090 -2.390230 19.895223 -27.650133 -33.620049 -16.067523 13.211058 5.829786 9.375555 4.356306 -64.839413 5.258900 8.848347 33.713681 0.607699 6.258854 2.086374 0.997020 0.745280 0.989910 17.742715 -9.383028 0.518072 -20.093538 5.446129 4.418130 -1.008415 -4.904886 33.077834 -1.019413 -5.363442 2.349874 -0.009920 -0.673680 0.435810 -1.020781 -6.682756 -8.782430 -21.050676 23.193732 65.085825 13.046244 13.458625 9.923855 3.439131 -12.508608 -18.186833 -25.303078 9.425867 37.591893 -5.357700 0.896050 -33.324080 -18.123175 -21.082480 12.939661 -42.220431 21.831034 -24.054588 -84.834263 -20.849103 -0.313307 -2.650606 3.683543 0.582090 -0.624950 0.771470 0.217010 13.844146 45.565738 9.509139 13.829150 25.641981 -19.262291 -131.282070 39.949013 -106.348047 2.689598 -1.681260 0.571810 -0.321790 -0.726510 0.019210 
0.263880 17.071660 -2.350510 19.968343 -27.765947 -33.220951 -16.052286 13.129033 6.003230 8.911067 1.782286 -64.591650 6.717778 9.281518 43.397917 0.756147 7.448671 1.693136 0.961750 0.684970 0.999190 17.769019 -9.409113 0.468111 -19.690686 5.558776 2.301208 -1.508175 -4.790436 35.853676 -1.036116 -5.447271 2.298860 -0.043840 -0.687310 0.425840 -1.067943 -6.497994 -8.831641 -21.287983 23.173091 65.289605 13.866073 12.561937 8.430030 3.056272 -11.956380 -18.848179 -25.406941 10.609343 40.300879 -5.591050 1.368280 -34.662980 -18.421700 -21.645525 12.286796 -43.750197 20.226712 -24.038942 -78.050653 -21.114679 -0.179248 -2.661638 3.592985 0.647060 -0.651620 0.782340 0.171330 15.300481 44.142480 11.142357 18.631191 24.795149 -17.920757 -138.683562 42.333175 -125.462981 2.639566 -1.801819 0.541080 -0.298570 -0.681370 -0.014170 
0.308240 17.049420 -2.265530 19.827858 -30.844947 -32.764683 -15.962560 12.985039 6.034511 9.633596 0.724542 -62.853031 8.636576 10.488253 55.965212 1.251067 9.336426 1.108781 1.017200 0.781910 1.000330 17.879786 -9.496963 0.500596 -17.917553 6.045758 -1.040128 -2.504133 -4.229473 39.851533 -1.116366 -5.616153 2.253087 -0.034870 -0.739660 0.433390 -1.226491 -5.921718 -8.899853 -20.076251 22.372148 64.814106 13.541348 12.502968 5.845739 2.706985 -11.789783 -19.545664 -26.826031 12.278666 42.724408 -6.069200 2.110430 -34.197360 -20.442014 -21.842677 11.462081 -43.963166 18.770623 -23.134881 -71.080399 -20.643756 -0.257478 -2.612159 3.617092 0.629110 -0.686150 0.840830 0.217890 18.730179 42.551055 12.910882 24.166813 21.805914 -16.844352 -148.468637 46.553490 -149.631965 2.595162 -2.036930 0.612680 -0.332120 -0.739520 0.024040 
0.375860 17.006120 -2.160250 18.734645 -35.270371 -31.155146 -15.857320 12.745251 6.043110 11.772010 1.017618 -59.993148 6.469802 14.051264 65.556681 1.703967 11.218300 0.550217 1.043710 0.798960 1.047740 18.012512 -9.501265 0.709218 -14.612473 7.107056 -5.063137 -3.769185 -3.393910 43.917911 -1.214360 -5.771331 2.180633 -0.045570 -0.798210 0.436710 -1.423595 -5.222465 -8.993543 -17.527194 20.464314 63.465806 12.404722 12.301902 2.836070 2.535214 -11.342896 -20.037713 -28.466995 14.267833 47.113134 -6.535220 2.806200 -34.208460 -22.270481 -21.830732 10.512562 -47.034180 16.545278 -22.335618 -58.480516 -17.303079 -2.282446 -2.599383 3.519951 0.681180 -0.736110 0.897170 0.196890 21.384861 40.670206 14.154932 31.212842 17.250385 -17.225276 -159.712333 52.290133 -174.822006 2.569284 -2.049664 0.633480 -0.337350 -0.744930 0.008070 
0.436720 16.937800 -2.045730 15.805167 -37.976009 -27.161773 -15.795470 12.524408 6.047153 12.651268 0.007805 -56.964760 3.179788 17.582254 70.962962 2.056903 12.488460 0.204065 1.057500 0.798520 1.077390 18.081530 -9.336895 1.122188 -10.848633 8.245641 -9.183112 -3.721745 -3.471144 47.588004 -1.342430 -6.047542 2.081808 -0.066250 -0.856210 0.436110 -1.647775 -4.727723 -9.092552 -14.234431 17.241661 61.910792 11.304168 11.071237 -1.740244 2.613908 -10.622915 -19.701761 -29.529379 16.103706 50.922677 -7.261520 4.150550 -34.426400 -24.766648 -21.110929 9.790065 -52.068076 14.906445 -21.007504 -42.314573 -13.613745 -3.326221 -2.587016 3.405553 0.745140 -0.783380 0.944960 0.181450 23.835291 37.774313 14.120221 38.369737 10.383232 -19.677303 -178.068012 59.904070 154.246500 2.599016 -1.857590 0.641710 -0.352990 -0.746360 -0.019090 
0.497720 16.856710 -1.931110 10.797749 -39.144900 -21.694845 -15.777058 12.480899 5.914577 12.400990 -1.903982 -53.586843 1.490459 18.681510 73.141623 2.250677 12.946743 0.101773 1.050480 0.801870 1.076950 18.082792 -9.073711 1.641180 -6.886816 9.014611 -12.599486 -2.338770 -4.651640 50.268136 -1.480040 -6.371964 1.997077 -0.089650 -0.894550 0.418970 -1.823885 -4.641350 -9.174698 -10.069381 12.746982 60.453310 9.576404 9.458246 -6.155350 3.407916 -9.597913 -18.767863 -29.744039 17.238643 53.801392 -8.158550 5.725810 -34.358150 -27.428115 -19.633257 9.050016 -57.119799 13.466131 -18.863988 -25.431994 -12.390172 -2.546921 -2.565246 3.285271 0.783970 -0.813270 0.984580 0.186680 24.785723 34.149140 13.417787 44.519067 3.494590 -23.433522 154.628300 65.850244 118.112699 2.795588 -1.406147 0.644010 -0.357230 -0.757550 -0.031220 
0.543570 16.735080 -1.800830 5.034348 -39.516912 -15.303087 -15.794715 12.604972 5.638796 12.110565 -3.506147 -49.239118 -0.146536 18.464052 71.887069 2.248850 12.761461 0.149758 1.040440 0.775860 1.104710 18.032604 -8.760754 2.213979 -2.939153 9.730881 -15.770057 -0.349244 -6.385837 52.320109 -1.612749 -6.737232 1.894325 -0.120480 -0.936940 0.418460 -1.891065 -4.905013 -9.259347 -5.424704 7.816675 57.128453 7.164870 7.802397 -8.612269 4.892024 -8.191989 -17.900787 -28.410856 16.782816 56.864359 -10.460000 7.107930 -32.670250 -29.927757 -18.036110 7.980422 -60.581343 11.679029 -15.673824 -8.791431 -10.635224 -1.627229 -2.571050 3.214498 0.811470 -0.817940 1.008570 0.174920 24.087473 30.444496 12.920536 50.660092 -1.438356 -26.743132 118.058041 71.345108 75.777524 3.598535 -0.293909 0.643830 -0.389200 -0.767100 -0.064900 
0.588010 16.582860 -1.652400 -1.155229 -40.611115 -8.828089 -15.714313 12.832340 5.189971 12.993871 -3.468329 -43.026868 -3.205608 18.026406 65.842514 2.038716 11.928157 0.369872 1.014500 0.706620 1.150250 18.028868 -8.671499 2.812639 0.770274 10.538409 -17.989341 1.269675 -7.695890 53.034065 -1.688785 -6.930103 1.842644 -0.152640 -0.951220 0.409550 -2.166194 -4.882903 -9.253277 1.064331 2.482579 53.654757 2.234216 6.164455 -10.441423 6.421957 -6.840448 -16.820811 -25.812760 15.612601 58.733282 -12.413470 8.610740 -30.417480 -32.035560 -15.511803 6.117584 -60.588928 10.530263 -12.769174 1.769021 -6.836375 -0.918097 -2.638005 3.174416 0.836660 -0.803590 1.002700 0.153090 22.449917 26.299866 12.527763 57.418907 -3.537197 -24.003671 66.215179 74.819449 32.441885 3.061476 -1.698262 0.609150 -0.405690 -0.771480 -0.113940 
0.596400 16.401630 -1.491770 -6.705525 -42.381191 -1.720692 -15.720771 12.928997 4.942546 14.742170 -2.751968 -39.395361 -6.641686 18.170649 59.522695 1.920662 11.200753 0.588084 0.953450 0.637470 1.079180 18.005396 -8.446734 3.259000 4.124306 11.359775 -20.049324 1.712891 -8.124472 53.286136 -1.685533 -7.031396 1.850811 -0.200090 -0.882180 0.432350 -2.323654 -5.054504 -9.289932 6.610801 -0.884991 48.980049 -0.990154 5.321810 -13.119473 7.535690 -6.899137 -14.578525 -24.335086 15.057401 55.910051 -14.151940 11.283820 -25.641310 -33.562837 -9.921955 3.520987 -59.500373 10.823018 -11.814188 6.631424 -6.176489 -0.712880 -2.756795 3.227347 0.754980 -0.719500 0.936100 0.181240 21.160894 20.190833 10.566890 60.654213 -4.292536 -25.051386 36.835104 60.595877 11.563090 2.778855 -1.804669 0.613790 -0.465750 -0.762550 -0.094210 
